HIERARCHY
ROOT HipCenter
{
    OFFSET 0.0 0.0 -0.0
    CHANNELS 6 Xposition Yposition Zposition Zrotation Xrotation Yrotation
    JOINT Spine
    {
        OFFSET 0.0 11.537464141845703 0.0
        CHANNELS 3 Zrotation Xrotation Yrotation
        JOINT ShoulderCenter
        {
            OFFSET 0.0 33.01592254638672 0.0
            CHANNELS 3 Zrotation Xrotation Yrotation
            JOINT LeftShoulder
            {
                OFFSET 18.589237213134766 0.0 0.0
                CHANNELS 3 Zrotation Xrotation Yrotation
                JOINT LeftElbow
                {
                    OFFSET 28.857070922851562 0.0 0.0
                    CHANNELS 3 Zrotation Xrotation Yrotation
                    JOINT LeftWrist
                    {
                        OFFSET 29.327783584594727 0.0 0.0
                        CHANNELS 3 Zrotation Xrotation Yrotation
                        JOINT LeftHand
                        {
                            OFFSET 3.7766261100769043 0.0 0.0
                            CHANNELS 3 Zrotation Xrotation Yrotation
                            End Site
                            {
                                OFFSET 1.510650396347046 0.0 0.0
                            }
                        }
                    }
                }
            }
            JOINT RightShoulder
            {
                OFFSET -18.589237213134766 0.0 0.0
                CHANNELS 3 Zrotation Xrotation Yrotation
                JOINT RightElbow
                {
                    OFFSET -28.857070922851562 0.0 0.0
                    CHANNELS 3 Zrotation Xrotation Yrotation
                    JOINT RightWrist
                    {
                        OFFSET -29.327783584594727 0.0 0.0
                        CHANNELS 3 Zrotation Xrotation Yrotation
                        JOINT RightHand
                        {
                            OFFSET -3.7766261100769043 0.0 0.0
                            CHANNELS 3 Zrotation Xrotation Yrotation
                            End Site
                            {
                                OFFSET -1.510650396347046 0.0 0.0
                            }
                        }
                    }
                }
            }
            End Site
            {
                OFFSET 0.0 13.20637035369873 0.0
            }
        }
    }
    JOINT LeftHip
    {
        OFFSET 13.48421573638916 0.0 0.0
        CHANNELS 3 Zrotation Xrotation Yrotation
        JOINT LeftKnee
        {
            OFFSET 0.0 -41.18169403076172 0.0
            CHANNELS 3 Zrotation Xrotation Yrotation
            JOINT LeftAnkle
            {
                OFFSET 0.0 -42.332061767578125 0.0
                CHANNELS 3 Zrotation Xrotation Yrotation
                JOINT LeftFoot
                {
                    OFFSET 0.0 -13.491710662841797 0.0
                    CHANNELS 3 Zrotation Xrotation Yrotation
                    End Site
                    {
                        OFFSET 0.0 0.0 5.396683692932129
                    }
                }
            }
        }
    }
    JOINT RightHip
    {
        OFFSET -13.48421573638916 0.0 0.0
        CHANNELS 3 Zrotation Xrotation Yrotation
        JOINT RightKnee
        {
            OFFSET 0.0 -41.18169403076172 0.0
            CHANNELS 3 Zrotation Xrotation Yrotation
            JOINT RightAnkle
            {
                OFFSET 0.0 -42.332061767578125 0.0
                CHANNELS 3 Zrotation Xrotation Yrotation
                JOINT RightFoot
                {
                    OFFSET 0.0 -13.491710662841797 0.0
                    CHANNELS 3 Zrotation Xrotation Yrotation
                    End Site
                    {
                        OFFSET 0.0 0.0 5.396683692932129
                    }
                }
            }
        }
    }
}
MOTION
Frames: 4
Frame Time: 0.03333333333333333
52.89999771118164 0.8999999761581421 -97.79999542236328 -3.513772882017152 -5.0037367600971985 -7.607430040565988 2.389447214454217 3.440909606894538 -0.1800196442945731 1.547697599203486e-08 -1.9207522447755634e-08 -2.080612695963966 123.60625698013952 0.7189754606877815 -137.34001397632304 1.700599277602449e-06 2.2200411021108005e-06 136.26329192271095 5.395274565694716e-07 -48.52544434495488 40.011239031744736 6.3611093629270335e-15 3.1805546814635168e-15 -1.7655625192200634e-31 -89.19406532077565 14.230993984356921 179.26747035787895 1.8504149565320033e-06 -3.2766528116990406e-06 -20.955009113209456 -179.999993133767 -63.41886530982217 153.23501421188527 6.3611093629270335e-15 -1.5902773407317584e-15 8.827812596100317e-32 5.667937178981651 6.916803334756831 -40.126646213157265 -13.47860500546167 15.168810464833635 -11.32877933456659 95.88941869329203 -29.302660489913414 151.31728244051945 -3.1805546814635164e-15 -8.827812596100317e-32 3.1805546814635164e-15 2.1328925779084016 2.2967170818515577 30.73053679504883 12.553135954506452 23.563190413535164 15.571920872422824 -94.53935859861095 -35.758728394982626 -141.34636181593962 9.931289170612858e-32 -7.156248033292914e-15 1.5902773407317584e-15
52.89999771118164 0.800000011920929 -97.79999542236328 -3.48329428595872 -4.96060583646786 -7.219006736647111 2.192690219037851 3.523308975299563 -0.14689945604729268 -2.816104177453825e-08 -1.391624565663149e-07 -2.174129463805207 124.11042719451433 0.1449037959585335 -136.2249765809392 5.459424147324745e-06 1.1065187325689087e-06 135.7926697069299 6.269772457971113e-07 -46.21545350851329 42.29605698700778 -6.3611093629270335e-15 -9.54166404439055e-15 -5.29668755766019e-31 -88.75127348339115 14.737135335380453 179.5793893695434 3.479591355095352e-06 -2.910610135747395e-06 -20.667407261567597 -179.99999937043142 -66.82532022544365 150.85249675325753 0.0 -3.1805546814635168e-15 0.0 5.689116996143153 6.832172459345122 -39.53433784565734 -13.217852547228006 15.21208593685388 -11.367875060609808 95.66710844556864 -30.267102888720892 150.42004915576632 -3.1805546814635168e-15 -4.770832022195275e-15 -3.1805546814635168e-15 2.25915109213018 2.2522569597720783 30.282332848025877 12.492987498875875 23.78871505559419 15.669261483496644 -94.53872480541415 -35.17514847539968 -141.62385458831696 -3.1805546814635164e-15 6.3611093629270335e-15 -6.3611093629270335e-15
52.79999923706055 0.800000011920929 -98.0 -4.01419127671752 -5.00087771692294 -6.8620766004100595 2.660411455177763 4.303520415702224 -0.2317521345527704 -3.869818727944586e-09 -1.2819307813000347e-08 -2.4724293514272357 124.08253298023803 -0.03083110732857425 -135.215715877108 5.815008781638182e-07 -2.798621434949309e-06 135.58729983921987 1.4841098987608408e-06 -47.42011015338265 41.535310364258905 0.0 6.361109362927032e-15 0.0 -88.81203526283262 14.260436248490178 179.23119544601505 -1.3490353677256347e-06 2.3096853643032157e-06 -20.056806764892567 179.99999984990367 -65.55431512686383 150.04300312686007 -1.3241718894150476e-31 4.770832022195274e-15 3.1805546814635164e-15 6.59646686765462 6.358358097162692 -40.762360496671704 -14.171248645375679 15.520948068066303 -11.728572647658709 96.53821620471173 -28.953938864672566 152.35091594849467 -3.1805546814635168e-15 -6.361109362927035e-15 6.361109362927035e-15 3.187152416893118 2.521256075543361 30.166656348929383 11.895381173633552 23.500701775342996 15.211828674407673 -94.96249812598697 -35.946080435115775 -141.13541295743633 -1.5902773407317588e-15 -7.951386703658794e-16 -1.5902773407317588e-15
52.89999771118164 0.7000000476837158 -98.19999694824219 -3.979397456346491 -4.464158926197346 -6.863049456542632 2.9728168406497923 4.3227630834682875 -0.25416363665464203 -2.578124441752835e-08 -2.1189431155612162e-08 -2.574170278938568 123.58113136097404 0.4012998464292583 -134.71619520068535 -8.818779263846003e-07 2.430003388271802e-07 135.70522508041392 -1.1534041717568822e-06 -39.76235936317724 42.45711554469435 3.531125038440127e-31 -6.3611093629270335e-15 6.3611093629270335e-15 -88.87835793547708 14.171661970737079 179.49989928488088 2.39635684197808e-06 -4.404024602383564e-07 -20.512660439544007 179.99999730679622 -64.7811533779282 152.8352674505322 4.4139062980501586e-32 -1.5902773407317588e-15 3.1805546814635176e-15 6.54795346379271 5.247773993976283 -40.064483100486584 -14.551226625544706 16.311667323736067 -12.267321328198443 97.28530189690079 -28.787399197721083 152.90518622721515 5.29668755766019e-31 -9.54166404439055e-15 6.3611093629270335e-15 3.0797839304508683 1.9696947690578952 30.26246207029217 11.921432218557602 23.211951769963378 15.09674598922719 -94.49290496231934 -35.99543831734022 -140.7866499561435 -4.770832022195275e-15 6.3611093629270335e-15 -3.1805546814635164e-15
